<?xml version="1.0" encoding="UTF-8"?>
<svg width="29px" height="29px" viewBox="0 0 29 29" version="1.1" xmlns="http://www.w3.org/2000/svg" xmlns:xlink="http://www.w3.org/1999/xlink">
    <!-- Generator: Sketch 43.1 (39012) - http://www.bohemiancoding.com/sketch -->
    <title>phone-call</title>
    <desc>Created with Sketch.</desc>
    <defs></defs>
    <g id="Page-1" stroke="none" stroke-width="1" fill="none" fill-rule="evenodd">
        <g id="slider-incrusté" transform="translate(-38.000000, -56.000000)" fill-rule="nonzero" fill="#666666">
            <g id="phone-call" transform="translate(38.000000, 56.000000)">
                <g id="Capa_1">
                    <g id="Group">
                        <path d="M22.9097553,17.9571181 C22.3162954,17.3391857 21.6004726,17.0088059 20.8418228,17.0088059 C20.0892911,17.0088059 19.3673502,17.3330675 18.7494177,17.951 L16.8160844,19.8782152 C16.6570127,19.7925612 16.4979409,19.7130253 16.3449873,19.6334895 C16.1247342,19.5233629 15.9167173,19.4193544 15.7392911,19.3092278 C13.9283207,18.1590169 12.2825401,16.6600717 10.7040591,14.7206203 C9.93929114,13.7539536 9.42536709,12.9402405 9.05216034,12.1142911 C9.5538481,11.6554304 10.018827,11.1782152 10.4715696,10.7193544 C10.6428776,10.5480464 10.8141857,10.3706203 10.9854937,10.1993122 C12.2703038,8.91450211 12.2703038,7.25036709 10.9854937,5.96555696 L9.31524051,4.2953038 C9.12557806,4.10564135 8.92979747,3.90986076 8.74625316,3.71408017 C8.37916456,3.33475527 7.99372152,2.94319409 7.59604219,2.57610549 C7.00258228,1.98876371 6.29287764,1.6767384 5.54646414,1.6767384 C4.80005063,1.6767384 4.0781097,1.98876371 3.46629536,2.57610549 C3.46017722,2.58222363 3.46017722,2.58222363 3.45405907,2.58834177 L1.3738903,4.68686498 C0.590767932,5.46998734 0.14414346,6.42441772 0.0462531646,7.53180169 C-0.100582278,9.31829958 0.425578059,10.9824346 0.829375527,12.0714641 C1.82051477,14.7450928 3.30110549,17.2229409 5.50975527,19.8782152 C8.18950211,23.0780042 11.4137637,25.6047975 15.0968861,27.3851772 C16.5040591,28.0520549 18.3823291,28.8412954 20.4808523,28.9758945 C20.6093333,28.9820127 20.7439325,28.9881308 20.8662954,28.9881308 C22.2795865,28.9881308 23.4665063,28.4803249 24.3964641,27.4708312 C24.4025823,27.4585949 24.4148186,27.4524768 24.4209367,27.4402405 C24.7390802,27.0547975 25.1061688,26.7060633 25.4916118,26.3328565 C25.754692,26.0820127 26.0238903,25.8189325 26.2869705,25.543616 C26.8926667,24.9134473 27.2108101,24.17927 27.2108101,23.4267384 C27.2108101,22.6680886 26.8865485,21.9400295 26.268616,21.3282152 L22.9097553,17.9571181 Z M25.1000506,24.3995232 C25.0939325,24.3995232 25.0939325,24.4056414 25.1000506,24.3995232 C24.861443,24.6564852 24.6167173,24.8889747 24.3536371,25.1459367 C23.9559578,25.5252616 23.5521603,25.9229409 23.1728354,26.3695654 C22.554903,27.0303249 21.8268439,27.3423502 20.8724135,27.3423502 C20.7806414,27.3423502 20.6827511,27.3423502 20.5909789,27.3362321 C18.7738903,27.2199873 17.0852827,26.5102827 15.818827,25.9045865 C12.3559578,24.2282152 9.31524051,21.8482574 6.78844726,18.8320127 C4.70216034,16.3174557 3.30722363,13.9925612 2.38338397,11.4963586 C1.81439662,9.97294093 1.60637975,8.7860211 1.6981519,7.66640084 C1.75933333,6.95057806 2.03464979,6.35711814 2.5424557,5.84931224 L4.62874262,3.76302532 C4.92853165,3.48159072 5.24667511,3.32863713 5.55870042,3.32863713 C5.94414346,3.32863713 6.25616878,3.56112658 6.45194937,3.75690717 C6.45806751,3.76302532 6.46418565,3.76914346 6.4703038,3.7752616 C6.84351055,4.12399578 7.19836287,4.48496624 7.57156962,4.87040928 C7.76123207,5.06618987 7.95701266,5.26197046 8.15279325,5.4638692 L9.82304641,7.13412236 C10.4715696,7.78264557 10.4715696,8.38222363 9.82304641,9.03074684 C9.64562025,9.208173 9.47431224,9.38559916 9.29688608,9.55690717 C8.78296203,10.0830675 8.29351055,10.572519 7.76123207,11.0497342 C7.74899578,11.0619705 7.73675949,11.0680886 7.73064135,11.0803249 C7.20448101,11.6064852 7.30237131,12.1204093 7.41249789,12.4691435 C7.41861603,12.4874979 7.42473418,12.5058523 7.43085232,12.5242068 C7.86524051,13.5765274 8.47705485,14.5676667 9.40701266,15.7484684 L9.4131308,15.7545865 C11.1017384,17.8347553 12.8821181,19.4560633 14.8460422,20.6980464 C15.0968861,20.8571181 15.3538481,20.9855992 15.5985738,21.107962 C15.818827,21.2180886 16.0268439,21.322097 16.20427,21.4322236 C16.2287426,21.4444599 16.2532152,21.4628143 16.2776878,21.4750506 C16.4857046,21.5790591 16.6814852,21.6280042 16.883384,21.6280042 C17.3911899,21.6280042 17.7093333,21.3098608 17.8133418,21.2058523 L19.9057468,19.1134473 C20.1137637,18.9054304 20.4441435,18.6545865 20.8295865,18.6545865 C21.2089114,18.6545865 21.5209367,18.8931941 21.7105992,19.101211 L21.7228354,19.1134473 L25.0939325,22.4845443 C25.7241013,23.1085949 25.7241013,23.751 25.1000506,24.3995232 Z" id="Shape"></path>
                        <path d="M15.6658734,6.89551477 C17.268827,7.16471308 18.7249451,7.92336287 19.8873924,9.08581013 C21.0498397,10.2482574 21.8023713,11.7043755 22.0776878,13.3073291 C22.1449873,13.7111266 22.4937215,13.9925612 22.8914008,13.9925612 C22.940346,13.9925612 22.983173,13.986443 23.0321181,13.9803249 C23.4848608,13.9069072 23.7846498,13.4786371 23.7112321,13.0258945 C23.3808523,11.086443 22.4631308,9.31829958 21.0620759,7.91724473 C19.6610211,6.51618987 17.8928776,5.59846835 15.9534262,5.26808861 C15.5006835,5.19467089 15.0785316,5.49445992 14.9989958,5.94108439 C14.9194599,6.38770886 15.2131308,6.82209705 15.6658734,6.89551477 Z" id="Shape"></path>
                        <path d="M28.954481,12.7872869 C28.4099662,9.59361603 26.904903,6.68749789 24.5922447,4.37483966 C22.2795865,2.06218143 19.3734684,0.557118143 16.1797975,0.0126033755 C15.733173,-0.0669324895 15.3110211,0.238974684 15.2314852,0.685599156 C15.1580675,1.13834177 15.4578565,1.56049367 15.9105992,1.64002954 C18.761654,2.12336287 21.361865,3.47547257 23.4297975,5.53728692 C25.49773,7.60521941 26.8437215,10.2054304 27.3270549,13.0564852 C27.3943544,13.4602827 27.7430886,13.7417173 28.1407679,13.7417173 C28.1897131,13.7417173 28.2325401,13.7355992 28.2814852,13.729481 C28.7281097,13.6621814 29.0340169,13.2339114 28.954481,12.7872869 Z" id="Shape"></path>
                    </g>
                </g>
            </g>
        </g>
    </g>
</svg>